# xmcd
#
# Track frame offsets: 
#        150
#        29774
#        46369
#        74948
#        108655
#        129300
#        148438
#        170531
#        200337
#        222367
#        242405
#        255326
#
# Disc length: 3675 seconds
#
# Revision: 2
# Processed by: cddbd v1.5.2PL0 Copyright (c) Steve Scherf et al.
# Submitted via: ExactAudioCopy v0.95b4
#
DISCID=bf0e590c
DTITLE=Giovanni Mirabassi, Gianluca Renzi, Leon Parker - Out Of Track
DYEAR=2008
DGENRE=Jazz
TTITLE0=Dear Old Stockholm <Trad.>
TTITLE1=Pieranunzi <G. Mirabassi>
TTITLE2=Vuelvo al Sur <A. Piazolla>
TTITLE3=Alone Together <H. Dietz, A. Schwartz>
TTITLE4=Le chant des Partisans <J. Kessel, A. Marly>
TTITLE5=Just One Of Those Things <C. Porter>
TTITLE6=Zoom <G. Mirabassi>
TTITLE7=Impressions <J. Coltrane>
TTITLE8=Souvenirs Souvenirs <G. Mirabassi>
TTITLE9=Here's The Intro <G. Mirabassi>
TTITLE10=Here's To You <J. Baez, E. Morricone>
TTITLE11=Convite para a Vida <A. Pinto, E. Cortes>
EXTD=YEAR: 2008
EXTT0=
EXTT1=
EXTT2=
EXTT3=
EXTT4=
EXTT5=
EXTT6=
EXTT7=
EXTT8=
EXTT9=
EXTT10=
EXTT11=
PLAYORDER=
